<?xml version="1.0" encoding="UTF-8"?>
<svg id="Ebene_2" data-name="Ebene 2" xmlns="http://www.w3.org/2000/svg" viewBox="0 0 44.5 36.78">
  <defs>
    <style>
      .cls-1, .cls-2 {
        stroke-width: 0px;
      }

      .cls-2 {
        fill: #e01974;
      }
    </style>
  </defs>
  <g id="Ebene_1-2" data-name="Ebene 1">
    <g>
      <g>
        <polygon class="cls-2" points="2.38 35.78 2.38 35.78 43.5 35.78 43.48 3.44 35.17 20.5 30.04 17.31 23.88 24.95 18.52 22.1 12.35 28.02 7.93 26.42 2.38 35.78"/>
        <polygon class="cls-1" points="44.5 36.78 .04 36.78 .04 34.78 42.5 34.78 42.5 0 44.5 0 44.5 36.78"/>
        <polygon class="cls-1" points="8.96 31.48 0 29.39 .45 27.45 8.93 29.42 21.12 26.23 27.47 27.5 36.12 21.59 43.88 22.04 43.76 24.04 36.69 23.63 27.91 29.63 21.18 28.28 8.96 31.48"/>
      </g>
      <polygon class="cls-1" points="6.52 12.18 1.05 6.71 2.47 5.29 6.52 9.35 15.87 0 17.28 1.41 6.52 12.18"/>
    </g>
  </g>
</svg>