<?xml version="1.0" encoding="UTF-8"?>
<svg id="Ebene_2" data-name="Ebene 2" xmlns="http://www.w3.org/2000/svg" viewBox="0 0 48.54 48.53">
  <defs>
    <style>
      .cls-1, .cls-2, .cls-3 {
        stroke-width: 0px;
      }

      .cls-2 {
        fill: #e01974;
      }

      .cls-3 {
        fill: #fff;
      }
    </style>
  </defs>
  <g id="Ebene_1-2" data-name="Ebene 1">
    <g>
      <g>
        <circle class="cls-2" cx="22.89" cy="25.64" r="21.89"/>
        <path class="cls-1" d="m22.89,48.53C10.27,48.53,0,38.26,0,25.64S10.27,2.76,22.89,2.76s22.89,10.27,22.89,22.89-10.27,22.89-22.89,22.89Zm0-43.77C11.37,4.76,2,14.13,2,25.64s9.37,20.89,20.89,20.89,20.89-9.37,20.89-20.89S34.4,4.76,22.89,4.76Z"/>
      </g>
      <g>
        <circle class="cls-3" cx="22.89" cy="25.64" r="14.4"/>
        <path class="cls-1" d="m22.89,41.05c-8.49,0-15.4-6.91-15.4-15.4s6.91-15.4,15.4-15.4,15.4,6.91,15.4,15.4-6.91,15.4-15.4,15.4Zm0-28.81c-7.39,0-13.4,6.01-13.4,13.4s6.01,13.4,13.4,13.4,13.4-6.01,13.4-13.4-6.01-13.4-13.4-13.4Z"/>
      </g>
      <g>
        <circle class="cls-2" cx="22.89" cy="25.64" r="6.29"/>
        <path class="cls-1" d="m22.89,32.93c-4.02,0-7.29-3.27-7.29-7.29s3.27-7.29,7.29-7.29,7.29,3.27,7.29,7.29-3.27,7.29-7.29,7.29Zm0-12.57c-2.92,0-5.29,2.37-5.29,5.29s2.37,5.29,5.29,5.29,5.29-2.37,5.29-5.29-2.37-5.29-5.29-5.29Z"/>
      </g>
      <g>
        <g>
          <polygon class="cls-2" points="35.49 13.05 33.78 7.43 39.32 1.89 41.04 7.51 46.66 9.22 41.11 14.76 35.49 13.05"/>
          <path class="cls-3" d="m38.85,3.77l1.38,4.54,4.54,1.38-3.94,3.94-4.54-1.38-1.38-4.54,3.94-3.94m.94-3.77l-2.36,2.36-3.94,3.94-.85.85.35,1.15,1.38,4.54.31,1.02,1.02.31,4.54,1.38,1.15.35.85-.85,3.94-3.94,2.36-2.36-3.19-.97-3.52-1.07-1.07-3.52-.97-3.19h0Z"/>
        </g>
        <path class="cls-1" d="m41.11,14.76l-5.62-1.71-1.71-5.62,5.55-5.55,1.71,5.62,5.62,1.71-5.55,5.55Zm-4.02-3.31l3.45,1.05,2.34-2.34-3.45-1.05-1.05-3.45-2.34,2.34,1.05,3.45Z"/>
      </g>
      <g>
        <line class="cls-2" x1="22.28" y1="26.25" x2="36.29" y2="12.24"/>
        <rect class="cls-1" x="19.38" y="18.25" width="19.81" height="2" transform="translate(-5.03 26.34) rotate(-45)"/>
      </g>
    </g>
  </g>
</svg>