<?xml version="1.0" encoding="UTF-8"?>
<svg id="Ebene_2" data-name="Ebene 2" xmlns="http://www.w3.org/2000/svg" viewBox="0 0 47.7 39.49">
  <defs>
    <style>
      .cls-1, .cls-2 {
        stroke-width: 0px;
      }

      .cls-2 {
        fill: #e01974;
      }
    </style>
  </defs>
  <g id="Ebene_1-2" data-name="Ebene 1">
    <g>
      <polygon class="cls-2" points="3.63 32.67 8.02 37.02 2.59 38.13 3.63 32.67"/>
      <path class="cls-1" d="m45.46,5.99l-5.15-5.33c-.79-.81-2.04-.89-2.91-.17L3.48,28.08l-2.31,11.13,11.2-2.04L45.3,9.13c.45-.38.73-.94.76-1.54.03-.59-.19-1.18-.6-1.6Zm-10.46.54L7.28,29.39l-.25-.72-.72-.3L34.17,5.69l.83.84Zm-25.01,25.72l-.43-.94-.92-.45L36.41,7.97l1.05,1.07-27.47,23.22Zm-4.87-2.22l.31.13.56,1.63,2.04,1,.86,1.91,1.64.78-6.81,1.24,1.39-6.68Zm7.22,4.54l-.22-.56-.71-.34,27.46-23.21.81.83-27.33,23.28ZM44.01,7.61l-2.8,2.39-5.48-5.57,2.93-2.38c.06-.05.15-.05.21.01l5.15,5.33s.04.08.04.12c0,.03-.01.07-.05.11Z"/>
      <path class="cls-2" d="m1.29,14.85L6.79,2.77l27.73,15.89c3.73,1.54,7.58,2.81,11.86,4.04-1.47,3.93-3.24,9.4-4.7,15.27L1.29,14.85Z"/>
      <path class="cls-1" d="m46.65,21.74c-4.56-1.31-8.28-2.57-11.7-3.97L6.34,1.36,0,15.26l42.33,24.22.32-1.28c1.27-5.1,2.98-10.63,4.67-15.16l.38-1.01-1.04-.3Zm-5.62,14.71l-1.36-.78,2.01-5.76-1.89-.66-1.89,5.41-3.26-1.87,2.36-4.98-1.81-.85-2.29,4.84-3.27-1.87,2.28-4.66-1.8-.88-2.22,4.54-3.26-1.87,2.27-4.7-1.8-.87-2.21,4.57-3.13-1.79,2.13-4.72-1.82-.82-2.06,4.54-2.86-1.64,2.26-4.99-1.82-.82-2.18,4.81-3.09-1.77,2.2-4.63-1.81-.86-2.14,4.49-2.88-1.65,2.01-4.45-1.82-.82-1.93,4.28-1.38-.79L7.25,4.19l26.77,15.34.12.06c3.24,1.34,6.74,2.54,10.93,3.77-1.45,4-2.89,8.65-4.04,13.08Z"/>
    </g>
  </g>
</svg>