<?xml version="1.0" encoding="UTF-8"?>
<svg id="Ebene_2" data-name="Ebene 2" xmlns="http://www.w3.org/2000/svg" viewBox="0 0 42.08 43.81">
  <defs>
    <style>
      .cls-1 {
        fill: #fff;
      }

      .cls-1, .cls-2 {
        stroke: #000;
        stroke-miterlimit: 10;
        stroke-width: 2px;
      }

      .cls-2 {
        fill: #e01974;
      }
    </style>
  </defs>
  <g id="Ebene_1-2" data-name="Ebene 1">
    <g>
      <path class="cls-1" d="m11.74,7.89v9.82c0,.83-.2,1.56-.6,2.2-.4.63-.89,1.2-1.46,1.71.54.51,1.02,1.08,1.44,1.71.41.63.62,1.36.62,2.2v10.41h2.98v6.89H5.18c-.22,0-.48-.11-.79-.33-.31-.22-.46-.65-.46-1.3v-12.74c0-1.05-.31-1.92-.92-2.6-.62-.69-1.28-1.12-2.01-1.3v-5.97c.36,0,.72-.12,1.08-.35.36-.23.68-.53.95-.89.27-.36.49-.77.65-1.22.16-.45.24-.89.24-1.33V2.63c0-.65.16-1.08.49-1.3s.58-.33.76-.33h9.54v6.89h-2.98Z"/>
      <path class="cls-2" d="m27.36,7.89V1h9.49c.22,0,.48.11.79.33.31.22.46.65.46,1.3v12.15c0,.43.08.88.24,1.33.16.45.39.86.68,1.22.29.36.6.66.95.89.34.24.71.35,1.11.35v5.97c-.72.18-1.4.62-2.03,1.3-.63.69-.95,1.55-.95,2.6v12.74c0,.65-.14,1.08-.43,1.3-.29.22-.56.33-.81.33h-9.49v-6.89h2.98v-10.41c0-.83.2-1.56.6-2.2.4-.63.87-1.2,1.41-1.71-.58-.51-1.06-1.08-1.44-1.71-.38-.63-.57-1.36-.57-2.2V7.89h-2.98Z"/>
    </g>
  </g>
</svg>