<?xml version="1.0" encoding="UTF-8"?><svg id="Ebene_2" xmlns="http://www.w3.org/2000/svg" viewBox="0 0 114.44 47.93"><g id="Ebene_1-2"><g><g><path d="m9.68,37.25H.79V15.16c-.13-2.33-.4-4.88-.79-7.52,2.51-.22,6.03-.57,9.68-1.28v30.89Zm0-10.96v-1.23l1.76-4.66c.66-1.54.97-3.04,1.23-4.27h9.64l-3.96,9.46,5.02,11.66h-10.12l-3.56-10.96Z"/><path d="m33.44,17.89c1.06-1.14,2.51-2.38,5.37-2.38,4.49,0,5.98,2.68,5.98,7.26v14.48h-8.89v-13.55c0-.88-.4-1.19-.92-1.19-.4,0-.79.09-1.28.31v14.43h-8.89v-20.82c0-1.85-.26-5.41-.7-8.8,3.13-.09,6.47-.66,9.55-1.19v7.53c0,1.06-.09,2.51-.44,3.83l.22.09Z"/><path d="m61.51,23.79c-.79-.22-2.07-.4-3.3-.53-.62-.05-1.23-.09-1.76-.09v14.08h-8.89v-13.11c-.09-1.58-.31-4.27-.79-7.7,1.89-.09,4.49-.35,7.61-.79.04.48.26,1.54.57,2.29l.26.04c1.58-1.67,2.86-2.46,4.44-2.46,1.1,0,2.07.22,2.86.53l-1.01,7.74Z"/><path d="m73.39,37.25h-8.89v-13.2c-.04-1.58-.18-3.43-.75-7.52,2.46-.18,6.07-.57,9.64-1.28v22Zm-4.62-31.77c2.73,0,4.8,1.36,4.8,4.14,0,2.55-2.07,4.14-4.8,4.14s-4.75-1.54-4.75-4.14,1.98-4.14,4.75-4.14Z"/><path d="m114,28.54h-7.96l-.35-12.19c-.09-2.42-.35-4.84-.75-7.48,2.51-.18,5.94-.57,9.51-1.23l-.44,20.9Zm-4.09,1.32c3.04,0,4.45,1.67,4.45,3.92,0,2.07-1.36,4-4.36,4-3.17,0-4.44-1.85-4.44-3.96s1.45-3.96,4.36-3.96Z"/><path d="m4.98,46.02l2.41-6.4h1.6v8.16h-1.03v-6.9h-.05l-2.46,6.56h-1.08l-2.5-6.73h-.06v7.07H.79v-8.16h1.81l2.31,6.4h.06Z"/><path d="m10.53,43.6c0-2.47,1.36-4.2,3.83-4.2,2.23,0,3.67,1.63,3.67,4.14,0,2.76-1.26,4.39-3.77,4.39s-3.73-1.83-3.73-4.32Zm1.16-.13c0,1.51.45,3.52,2.69,3.52,1.7,0,2.5-1.26,2.5-3.21,0-2.11-.79-3.43-2.7-3.43-1.59,0-2.48,1.18-2.48,3.13Z"/><path d="m21.59,44.22h-.9v3.56h-1.12v-8.16h2.5c1.31,0,2.51.47,2.51,2.13,0,1.2-.76,2.06-1.79,2.33l2.37,3.7h-1.31l-2.26-3.56Zm.26-.92c.91,0,1.54-.48,1.54-1.46,0-1.05-.58-1.34-1.58-1.34h-1.12v2.8h1.16Z"/><path d="m26.29,39.62h4.55v.91h-3.45v2.6h2.85v.92h-2.86v2.81h3.73v.92h-4.82v-8.16Z"/><path d="m37.15,39.62c1.65,0,2.67.72,2.67,2.33,0,2.07-1.37,2.75-3.06,2.75h-.77v3.08h-1.1v-8.16h2.26Zm-.47,4.19c1.46,0,1.97-.64,1.97-1.76s-.62-1.54-1.69-1.54h-.97v3.3h.69Z"/><path d="m45.85,46.84v.93h-4.64v-8.16h1.11v7.22h3.53Z"/><path d="m50.28,39.62l2.8,8.16h-1.18l-.82-2.41h-2.89l-.82,2.41h-1.13l2.38-7.05.34-1.11h1.32Zm-1.85,4.82h2.37l-1.12-3.56h-.09l-1.16,3.56Z"/><path d="m56.17,47.78h-1.08v-3.06l-2.51-5.09h1.19l1.85,3.95h.08l2-3.95h1.12l-2.65,5.08v3.08Z"/><path d="m65.04,40.97c-.58-.35-1.22-.6-2.13-.6-1.61,0-2.75,1.01-2.75,3.23,0,1.82.66,3.39,2.93,3.39.44,0,.93-.08,1.32-.19v-2.84h1.1v3.39c-.59.35-1.64.58-2.56.58-2.95,0-3.98-1.87-3.98-4.24s1.43-4.29,4.02-4.29c.97,0,2,.38,2.51.79l-.45.77Z"/><path d="m69.29,44.22h-.89v3.56h-1.12v-8.16h2.5c1.31,0,2.51.47,2.51,2.13,0,1.2-.76,2.06-1.79,2.33l2.37,3.7h-1.31l-2.26-3.56Zm.26-.92c.91,0,1.54-.48,1.54-1.46,0-1.05-.58-1.34-1.58-1.34h-1.12v2.8h1.16Z"/><path d="m73.46,43.6c0-2.47,1.36-4.2,3.83-4.2,2.23,0,3.67,1.63,3.67,4.14,0,2.76-1.26,4.39-3.77,4.39s-3.73-1.83-3.73-4.32Zm1.16-.13c0,1.51.45,3.52,2.69,3.52,1.7,0,2.5-1.26,2.5-3.21,0-2.11-.79-3.43-2.7-3.43-1.59,0-2.48,1.18-2.48,3.13Z"/><path d="m87.52,41.96h1.07v2.38c0,1.77-.39,3.58-3.13,3.58-2.46,0-3-1.39-3-3.44v-3.4h1.1v2.91c0,1.68.13,2.93,2,2.93,1.74,0,1.95-1.2,1.95-2.6v-2.36Z"/><path d="m90.57,47.78v-5.82h1.66l3.66,4.19h.06v-5.18h1.01v6.81h-1.24l-4.07-4.77h-.06v4.77h-1.02Z"/><path d="m98.98,47.78v-8.16h2.48c1.95,0,3.9.82,3.9,3.77,0,3.34-1.8,4.39-3.72,4.39h-2.66Zm2.27-7.28h-1.17v6.38h1.25c2,0,2.88-1.19,2.88-3.21,0-2.55-1.2-3.17-2.95-3.17Z"/><path d="m111,40.93c-.44-.26-1.06-.5-1.8-.5-.96,0-1.45.47-1.45,1.1,0,.82.55,1.07,1.65,1.53,1.02.43,2.2.87,2.2,2.38,0,1.7-1.12,2.5-2.79,2.5-1.11,0-2.18-.45-2.66-.81l.5-.88c.32.24,1.25.72,2.13.72,1.13,0,1.72-.43,1.72-1.35,0-1.02-.85-1.35-1.73-1.68-1.11-.42-2.13-.87-2.13-2.24,0-1.5,1.22-2.22,2.57-2.22.79,0,1.68.24,2.22.64l-.44.82Z"/><path d="m113.65,46.42c.5,0,.78.3.78.72,0,.39-.25.73-.76.73s-.78-.31-.78-.72.29-.73.76-.73Z"/></g><path d="m103.2,9.65c0,3.88-2.19,6.52-4.7,8.58v.25c3.76,1.94,6.08,4.95,6.08,9.21,0,5.7-4.26,11.9-15.47,11.9-7.58,0-14.54-3.01-14.54-10.78,0-4.01,1.69-7.02,5.58-9.96v-.25c-2.76-1.75-4.45-4.14-4.45-7.71,0-7.46,6.7-10.9,14.16-10.9,8.46,0,13.34,3.7,13.34,9.65Zm-11.09,18.92c0-1.75-1.88-3.2-4.07-4.51-1.13,1.25-2,2.57-2,4.32s1.25,2.88,3.26,2.88c1.82,0,2.82-1,2.82-2.69Zm-2.44-20.93c-1.57,0-2.44,1.07-2.44,2.38s.69,2.44,3.07,3.95c1.13-1.25,2.13-2.63,2.13-3.95,0-1.5-.94-2.38-2.76-2.38Z"/></g></g></svg>