<?xml version="1.0" encoding="UTF-8"?>
<svg id="Ebene_2" data-name="Ebene 2" xmlns="http://www.w3.org/2000/svg" viewBox="0 0 45.77 45.77">
  <defs>
    <style>
      .cls-1, .cls-2, .cls-3 {
        stroke-width: 0px;
      }

      .cls-2 {
        fill: #e01974;
      }

      .cls-3 {
        fill: #fff;
      }
    </style>
  </defs>
  <g id="Ebene_1-2" data-name="Ebene 1">
    <g>
      <g>
        <circle class="cls-2" cx="22.89" cy="22.89" r="21.89"/>
        <path class="cls-1" d="m22.89,45.77C10.27,45.77,0,35.51,0,22.89S10.27,0,22.89,0s22.89,10.27,22.89,22.89-10.27,22.89-22.89,22.89Zm0-43.77C11.37,2,2,11.37,2,22.89s9.37,20.89,20.89,20.89,20.89-9.37,20.89-20.89S34.4,2,22.89,2Z"/>
      </g>
      <g>
        <polygon class="cls-3" points="22.74 11.59 26.24 18.15 33.57 19.46 28.41 24.82 29.43 32.18 22.74 28.94 16.05 32.18 17.07 24.82 11.91 19.46 19.24 18.15 22.74 11.59"/>
        <path class="cls-1" d="m14.8,33.9l1.21-8.74-6.12-6.36,8.69-1.55,4.16-7.78,4.16,7.78,8.69,1.55-6.12,6.36,1.21,8.74-7.94-3.85-7.94,3.85Zm7.94-6.08l5.44,2.64-.83-5.99,4.19-4.36-5.96-1.06-2.85-5.34-2.85,5.34-5.96,1.06,4.19,4.36-.83,5.99,5.44-2.64Z"/>
      </g>
    </g>
  </g>
</svg>